<?xml version="1.0" encoding="UTF-8" standalone="no"?>
<!-- Created with Inkscape (http://www.inkscape.org/) -->

<svg
   width="120"
   height="100"
   viewBox="0 0 120 100"
   version="1.1"
   id="svg1"
   sodipodi:docname="super-set-03.svg"
   inkscape:version="1.3.2 (091e20ef0f, 2023-11-25, custom)"
   xmlns:inkscape="http://www.inkscape.org/namespaces/inkscape"
   xmlns:sodipodi="http://sodipodi.sourceforge.net/DTD/sodipodi-0.dtd"
   xmlns="http://www.w3.org/2000/svg"
   xmlns:svg="http://www.w3.org/2000/svg">
  <sodipodi:namedview
     id="namedview1"
     pagecolor="#ffffff"
     bordercolor="#000000"
     borderopacity="0.25"
     inkscape:showpageshadow="2"
     inkscape:pageopacity="0.0"
     inkscape:pagecheckerboard="0"
     inkscape:deskcolor="#d1d1d1"
     inkscape:zoom="1.0967378"
     inkscape:cx="-54.251798"
     inkscape:cy="52.884106"
     inkscape:window-width="1920"
     inkscape:window-height="953"
     inkscape:window-x="0"
     inkscape:window-y="28"
     inkscape:window-maximized="1"
     inkscape:current-layer="svg1" />
  <defs
     id="defs1" />
  <path
     id="text29"
     style="font-weight:300;font-size:129.733px;font-family:Nunito;-inkscape-font-specification:'Nunito Light';fill:#796a85;stroke:#796a85;stroke-width:3;stroke-linecap:round;stroke-linejoin:bevel;stroke-miterlimit:0"
     d="M 41.814453 6.7871094 C 37.349659 6.7871094 33.755859 10.380909 33.755859 14.845703 L 33.755859 15.005859 C 33.755859 19.470654 37.349659 23.066406 41.814453 23.066406 L 109.72852 23.066406 C 114.19331 23.066406 117.78711 19.470654 117.78711 15.005859 L 117.78711 14.845703 C 117.78711 10.380909 114.19331 6.7871094 109.72852 6.7871094 L 41.814453 6.7871094 z M 28.689453 29.828125 C 23.890878 29.828125 19.626757 30.584404 15.894531 32.099609 C 12.251169 33.530637 9.4071187 35.593411 7.3632812 38.287109 C 5.4083062 40.980808 4.4296875 44.138155 4.4296875 47.757812 C 4.4296875 51.966716 5.7638124 55.417629 8.4296875 58.111328 C 11.095562 60.720848 15.227834 62.614475 20.826172 63.792969 L 32.421875 66.318359 C 36.50955 67.244318 39.4415 68.465263 41.21875 69.980469 C 43.084862 71.411496 44.019531 73.474271 44.019531 76.167969 C 44.019531 79.450914 42.597506 82.059998 39.753906 83.996094 C 36.910306 85.93219 32.778034 86.900391 27.357422 86.900391 C 24.069509 86.900391 20.782053 86.480452 17.494141 85.638672 C 14.206228 84.796891 10.828919 83.280427 7.3632812 81.091797 C 6.5635187 80.586728 5.8085562 80.376759 5.0976562 80.460938 C 4.3867562 80.545115 3.7636438 80.838682 3.2304688 81.34375 C 2.7861562 81.764641 2.4746 82.312903 2.296875 82.986328 C 2.2080125 83.659752 2.2539157 84.332435 2.4316406 85.005859 C 2.6982282 85.595106 3.1855844 86.100594 3.8964844 86.521484 C 7.4509844 88.962649 11.1838 90.689082 15.09375 91.699219 C 19.092563 92.709356 23.091031 93.212891 27.089844 93.212891 C 34.732019 93.212891 40.775625 91.655605 45.21875 88.541016 C 49.750738 85.342249 52.015625 81.049506 52.015625 75.662109 C 52.015625 71.453205 50.595554 68.128664 47.751953 65.6875 C 44.908353 63.162158 40.598329 61.26853 34.822266 60.005859 L 23.224609 57.480469 C 19.492384 56.638688 16.738188 55.417742 14.960938 53.818359 C 13.27255 52.218976 12.427734 50.115379 12.427734 47.505859 C 12.427734 44.054557 13.805809 41.317149 16.560547 39.296875 C 19.404147 37.276601 23.402615 36.267578 28.556641 36.267578 C 31.489103 36.267578 34.377103 36.730291 37.220703 37.65625 C 40.064303 38.49803 42.77455 39.845347 45.351562 41.697266 C 46.151325 42.202334 46.906288 42.455078 47.617188 42.455078 C 48.328088 42.455078 48.9512 42.243156 49.484375 41.822266 C 50.01755 41.401375 50.373056 40.89784 50.550781 40.308594 C 50.817368 39.635169 50.817368 38.960534 50.550781 38.287109 C 50.373056 37.613685 49.927697 37.024599 49.216797 36.519531 C 46.550921 34.246723 43.441219 32.563065 39.886719 31.46875 C 36.332218 30.374435 32.599403 29.828125 28.689453 29.828125 z M 64.269531 41.859375 C 59.804736 41.859375 56.210938 45.455126 56.210938 49.919922 L 56.210938 50.080078 C 56.210937 54.544874 59.804736 58.140625 64.269531 58.140625 L 109.2832 58.140625 C 113.748 58.140625 117.3418 54.544874 117.3418 50.080078 L 117.3418 49.919922 C 117.3418 45.455126 113.748 41.859375 109.2832 41.859375 L 64.269531 41.859375 z M 64.757812 76.933594 C 60.293017 76.933594 56.699219 80.529345 56.699219 84.994141 L 56.699219 85.154297 C 56.699219 89.619092 60.293017 93.212891 64.757812 93.212891 L 109.72852 93.212891 C 114.19331 93.212891 117.78711 89.619092 117.78711 85.154297 L 117.78711 84.994141 C 117.78711 80.529345 114.19331 76.933594 109.72852 76.933594 L 64.757812 76.933594 z " />
</svg>
